<svg preserveAspectRatio="none" width="100%" height="100%" overflow="visible" style="display: block;" viewBox="0 0 22 22" fill="none" xmlns="http://www.w3.org/2000/svg">
<g id="Icon">
<path id="Vector" d="M13.0195 15.2324C13.0768 15.2611 13.1413 15.2897 13.2129 15.3184C13.2845 15.347 13.3633 15.3613 13.4492 15.3613C13.5638 15.3613 13.6712 15.3398 13.7715 15.2969C13.8717 15.2539 13.9505 15.1895 14.0078 15.1035L16.3281 12.2246C16.3854 12.1673 16.4284 12.0957 16.457 12.0098C16.4857 11.9238 16.5 11.8379 16.5 11.752C16.5 11.666 16.4857 11.5872 16.457 11.5156C16.4284 11.444 16.3854 11.3796 16.3281 11.3223L14.0078 8.48633C13.9505 8.40039 13.8717 8.32878 13.7715 8.27148C13.6712 8.21419 13.5638 8.18555 13.4492 8.18555C13.2487 8.18555 13.084 8.25716 12.9551 8.40039C12.8262 8.54362 12.7617 8.71549 12.7617 8.91602C12.7617 9.00195 12.776 9.08073 12.8047 9.15234C12.8333 9.22396 12.862 9.30273 12.8906 9.38867L14.2656 11.0645H6.23047C6.02995 11.0645 5.85807 11.1361 5.71484 11.2793C5.57161 11.4225 5.5 11.5801 5.5 11.752C5.5 11.9525 5.57161 12.1243 5.71484 12.2676C5.85807 12.4108 6.02995 12.4824 6.23047 12.4824H14.2656L12.8906 14.2012C12.862 14.2585 12.8333 14.3301 12.8047 14.416C12.776 14.502 12.7617 14.5879 12.7617 14.6738C12.7617 14.7884 12.7832 14.8887 12.8262 14.9746C12.8691 15.0605 12.9336 15.1465 13.0195 15.2324Z" fill="var(--fill-0, black)"/>
</g>
</svg>
