<svg preserveAspectRatio="none" width="100%" height="100%" overflow="visible" style="display: block;" viewBox="0 0 12.9167 7.09536" fill="none" xmlns="http://www.w3.org/2000/svg">
<path id="Vector" d="M4.5612 0.00926586C4.66174 0.0058544 4.76231 0.00399239 4.8629 0.00370594L7.13537 0.00301532C7.58934 0.00301532 8.18599 -0.0133645 8.62797 0.0302292C9.71662 0.144031 10.733 0.628524 11.5069 1.40253C12.3994 2.28989 12.9061 3.49354 12.9167 4.75213C12.9171 5.63377 12.4845 6.36945 11.7239 6.80474C11.1223 7.14914 10.5587 7.09171 9.89266 7.09184L8.37938 7.09158L4.06344 7.09197L2.87685 7.0925C2.55747 7.09263 2.16823 7.10539 1.85968 7.04562C1.45875 6.96906 1.0856 6.78664 0.778911 6.51736C0.322805 6.11789 0.0451095 5.55291 0.00750531 4.94783C-0.0676119 3.78182 0.42761 2.47648 1.20223 1.61575C2.10277 0.615177 3.23141 0.0948127 4.5612 0.00926586Z" fill="var(--fill-0, #76829B)"/>
</svg>
