<svg preserveAspectRatio="none" width="100%" height="100%" overflow="visible" style="display: block;" viewBox="0 0 11.5714 11.5714" fill="none" xmlns="http://www.w3.org/2000/svg">
<g id="Frame">
<path id="Vector" fill-rule="evenodd" clip-rule="evenodd" d="M9.62092 3.00496C9.68138 3.0654 9.72935 3.13716 9.76207 3.21615C9.79479 3.29513 9.81164 3.37979 9.81164 3.46528C9.81164 3.55078 9.79479 3.63543 9.76207 3.71442C9.72935 3.7934 9.68138 3.86516 9.62092 3.92561L4.98078 8.56647C4.92033 8.62694 4.84857 8.6749 4.76959 8.70762C4.6906 8.74035 4.60595 8.75719 4.52045 8.75719C4.43496 8.75719 4.3503 8.74035 4.27132 8.70762C4.19233 8.6749 4.12057 8.62694 4.06012 8.56647L1.95051 6.45686C1.82842 6.33477 1.75984 6.16919 1.75984 5.99653C1.75984 5.82388 1.82842 5.65829 1.95051 5.53621C2.07259 5.41412 2.23818 5.34553 2.41083 5.34553C2.58349 5.34553 2.74907 5.41412 2.87116 5.53621L4.52009 7.18513L8.70027 3.00496C8.76071 2.94449 8.83247 2.89653 8.91146 2.8638C8.99044 2.83108 9.0751 2.81424 9.16059 2.81424C9.24609 2.81424 9.33074 2.83108 9.40973 2.8638C9.48871 2.89653 9.56048 2.94449 9.62092 3.00496Z" fill="white"/>
</g>
</svg>
